<svg xmlns="http://www.w3.org/2000/svg" xmlns:xlink="http://www.w3.org/1999/xlink" version="1.1" x="0px" y="0px" viewBox="0 0 100 125" style="enable-background:new 0 0 100 100;" xml:space="preserve"><g><path d="M78.5,89.3c-1-0.2-3.2-0.2-6-0.2c-5.8,0-14.6,0.1-16.7-2c-2-2-2.9-4.8-4.2-13.4c0,0,0,0,0,0c0.9-2.6,1.2-7-0.1-13.2   c-1.7-8.6-0.4-19.1,0-22.1c0.6-3.8-0.5-6.7-1.7-9.8c-0.5-1.2-0.9-2.5-1.3-3.9c-0.8-2.8-0.2-4.3,0.4-6.1c0.4-1.1,0.7-2.1,0.9-3.6   c0-0.1,0-0.3,0.1-0.4c0-0.2,0.1-0.4,0.1-0.7c1.8-1.5,2.5-3.4,1.8-5.4c-0.1-0.3-0.2-0.6-0.3-0.8c0-0.2-0.1-0.5-0.3-0.6   c-0.8-1.2-2-1.7-3.5-1.6C45.8,3.2,43,2,39.7,2c-2.9,0-5.4,1.7-6.8,3.1c0,0,0,0,0,0c-0.1,0-3-0.1-3.6,1.8c-1.1,3.3,0.6,5.2,1.1,5.6   c0.2,3.2,1,4.4,1.8,5.7c0.4,0.6,0.7,1.2,1,2c0.4,1.1-0.5,2.4-2.7,4c-1.6,1.2-1.8,2.1-2.3,5.4c-0.1,0.6-0.2,1.2-0.3,2   c-0.5,2.9-1.8,6.9-2.9,10.1c-0.8,2.3-1.4,4-1.4,4.8c-0.1,1,0,2.4,0.1,3.7c0.1,1,0.2,1.9,0.2,2.6c0,0.7-0.1,1.5-0.3,2.3   c-0.2,1.2-0.4,2.5-0.2,3.8c0.3,2.2,3.1,4.9,3.3,5c0.1,0.1,0.9,0.8,1.7,0.5c0,0,0,0.1,0,0.1c-0.3,0.4-1.8,2.6-3.6,4.1   c-0.2,0.2-0.5,0.4-0.8,0.6c-2.3,1.7-6.2,4.5-2.7,9.6c2.1,3.1,5.3,5.5,7.4,7.1c0.8,0.6,1.7,1.3,2.1,1.7c-1.6,0.7-9.2,2.2-10.1,2.1   c-1-0.2-2.8,1.2-3.1,2.3c-0.2,0.7,0.2,1.4,1,1.7c0.3,0.1,0.7,0.2,1.1,0.2c1.4,0,3.5-0.5,6.4-1.1c2.7-0.6,5.4-1.2,7-1.2   c3.4,0.1,4.8-1.2,5.4-2.3c0.4-0.7,0.5-1.6,0.5-2.4c0.6,0.6,1.1,1.2,1.6,1.7c0.6,0.6,1.1,1.2,1.2,1.4c0,0.1,0.1,0.2,0.1,0.2   c-0.1,0.4-1.5,0.9-2.5,1.3c-0.6,0.2-1.3,0.5-1.9,0.8c-3.1,1.3-3.9,3.5-3.9,4.5c0,0.2,0.1,0.5,0.5,0.8c0.4,0.2,1,0.3,1.8,0.3   c1.5,0,3.5-0.4,4.7-1.2c0.7-0.5,1.9-1.1,3.1-1.8c2.2-1.1,4.2-2.2,4.9-3.2c0.7-1.1-0.1-3.5-0.9-6c-0.4-1.3-0.8-2.5-1-3.4   c0-0.1,0-0.2,0-0.3c1.2,2.4,3.9,7.3,7,9.6c1.1,0.8,2.6,1.5,6.4,1.3c3.3-0.2,19.8,0.2,19.9,0.2c0.7,0,3-0.1,3-1.5   C82.8,90.2,81.4,89.8,78.5,89.3z M30.3,7.2c0.2-0.5,0.9-0.8,1.6-0.9c0,0-0.1,0.1-0.1,0.1c-0.6,1-1.2,3.3-1.4,4.3   C30,10,29.8,8.8,30.3,7.2z M37.3,88.8c-0.6,1.2-2.1,1.8-4.4,1.7c-1.7-0.1-4.6,0.6-7.3,1.2c-2.8,0.6-6,1.4-6.9,1   c-0.4-0.1-0.3-0.3-0.3-0.3c0.2-0.7,1.5-1.5,1.9-1.5c1,0.2,10.2-1.5,11.3-2.4c0.2-0.2,0.3-0.4,0.3-0.6c0-0.6-0.7-1.2-2.6-2.7   c-2.1-1.6-5.2-4-7.1-6.9c-2.8-4.2,0.1-6.3,2.4-8.1c0.3-0.2,0.6-0.4,0.8-0.6c1.4-1.1,2.5-2.4,3.2-3.4c0.3,1.4,0.7,2.6,1.2,3.6   c0.9,1.6,3.7,4.9,4.2,5.6c-0.1,0.2-0.2,0.4-0.2,0.5c-1.1,2.7,1.1,6.3,3.5,9.3C37.6,85.9,37.9,87.6,37.3,88.8z M47.4,91.2   c-0.5,0.7-2.7,1.9-4.5,2.8c-1.3,0.7-2.5,1.3-3.3,1.8c-0.9,0.6-2.3,0.9-3.4,1c0.9-0.9,2.1-2.1,2.2-2.1c0.2-0.2,0.2-0.6,0-0.8   c-0.2-0.2-0.6-0.2-0.8,0c-0.1,0.1-2.1,1.9-2.9,2.9c0,0,0,0,0,0c-0.2,0-0.3-0.1-0.4-0.1c0.1-0.8,0.8-2.3,3.2-3.3   c0.7-0.3,1.3-0.5,1.9-0.7c1.7-0.6,2.9-1.1,3.2-2c0.1-0.4,0.1-0.8-0.2-1.2c-0.2-0.3-0.7-0.8-1.3-1.5c-0.8-0.9-1.9-2.1-3-3.5   c-0.1-0.1-0.1-0.2-0.2-0.3c0-0.1-0.1-0.1-0.2-0.2c-2-2.6-3.8-5.7-3-7.7c0.9-2.1,1.7-3.6,2.5-5c1.2-2.1,2.2-4,3.3-7.4   c0.1-0.3-0.1-0.6-0.4-0.7c-0.3-0.1-0.6,0.1-0.7,0.4c-1,3.3-2,5.2-3.2,7.2c-0.6,1.1-1.2,2.1-1.8,3.4c-0.9-1.1-3-3.7-3.8-5   c-0.8-1.4-1.3-3.5-1.4-6c1.3-1,3.8-3.2,4.4-6c0.7-3.3,4.9-9.5,10.8-10.1c0.3,0,0.5-0.3,0.5-0.6c0-0.3-0.3-0.5-0.6-0.5   c-6.4,0.7-11,7.4-11.8,11c-0.4,2-2.1,3.8-3.4,4.8c0-0.4,0-0.9,0.1-1.2l0-0.3c0.6-0.5,1.4-1.3,1.8-2.7c0.1-0.3-0.1-0.6-0.4-0.7   c-0.3-0.1-0.6,0.1-0.7,0.4c-0.2,0.5-0.4,0.9-0.6,1.3c0.1-1,0.1-2.1,0.2-3.4c0-0.1,0-0.1,0-0.2c0-1.3,0.3-4.9,1.1-6   c0.5-0.7,2.6-2.6,4.7-4.5c2.6-2.4,5.1-4.6,5.7-5.6c1.3-2,0.1-3.9,0-4c-0.2-0.3-0.5-0.3-0.8-0.2c-0.3,0.2-0.3,0.5-0.2,0.8   c0,0,0.9,1.4,0,2.8c-0.5,0.8-3.2,3.2-5.5,5.4c-2.3,2.1-4.3,3.9-4.8,4.7c-1,1.4-1.2,4.7-1.3,6.1c0,0,0,0.1,0,0.2l0,0.5   c0,0.1,0,0.3,0,0.4c-0.3-3.3-0.4-8.1,0.7-13.2c0.3-1.2,1.8-9.3,1.9-9.6c0.1-0.3-0.1-0.6-0.4-0.7c-0.3-0.1-0.6,0.1-0.7,0.4   c0,0.1-1.6,8.4-1.9,9.6c-1.9,8.6-0.4,16.5-0.1,17.8C28,59.9,27.9,60,27.9,60c-0.1,0-0.1-0.1-0.2-0.2c0,0,0-0.1-0.1-0.1   c-0.2-0.2-0.8-1-1.1-2.9c-0.1-0.3-0.3-0.5-0.7-0.4c-0.3,0.1-0.5,0.4-0.4,0.7c0.4,2,1,2.9,1.4,3.4c0.1,0.2,0.6,0.8,1.3,0.7   c0.1,0,0.1,0,0.2,0c0,0.6-0.1,1.2-0.1,1.3c0,0.8-0.2,0.9-0.2,0.9c-0.1,0-0.3-0.1-0.5-0.2c-0.7-0.7-2.7-2.8-2.9-4.3   c-0.2-1.1,0-2.3,0.2-3.5c0.1-0.8,0.3-1.7,0.3-2.5c0-0.8-0.1-1.7-0.2-2.7c-0.1-1.3-0.2-2.6-0.1-3.5c0.1-0.6,0.7-2.4,1.4-4.5   c1.1-3.3,2.5-7.3,3-10.3c0.1-0.7,0.2-1.4,0.3-2c0.5-3.1,0.5-3.7,1.8-4.6c1.7-1.2,3.8-3.1,3.1-5.3c-0.3-1-0.7-1.6-1.1-2.3   c-0.8-1.2-1.5-2.5-1.6-6.2c0.2-1,0.7-3.5,1.3-4.4c0.8-1.2,3.6-3.9,7-3.9c3.1,0,5.7,1.2,7.3,3.2c0.1,0.2,0.3,0.2,0.5,0.2   c0.8-0.1,1.5,0,2,0.4c-0.6,0.1-1.2,0.5-1.6,1.3c-0.6,1.7,0.2,3.2,0.2,3.3c0.1,0.2,0.3,0.3,0.5,0.3c0.1,0,0.2,0,0.3-0.1   c0.3-0.2,0.4-0.5,0.2-0.8c0,0-0.6-1.1-0.1-2.3C49.3,8,50,8,50.4,8c0.1,0.2,0.2,0.5,0.3,0.8c0.7,2.1-0.5,3.5-1.6,4.4   c-0.1,0.1-0.2,0.2-0.2,0.4c0,0.3-0.1,0.6-0.1,0.9c0,0.2,0,0.3-0.1,0.5c-0.1,1.3-0.5,2.4-0.8,3.3c-0.6,1.9-1.2,3.6-0.4,6.8   c0.4,1.4,0.9,2.7,1.3,4c1.1,2.9,2.1,5.7,1.6,9.3c-0.5,3.1-1.8,13.7,0,22.5c1.6,8,0.4,12.5-0.5,14c-0.5,0.8-1.2,1.6-1.8,2.3   c-1.5,1.8-3.1,3.6-2.7,5.7c0.2,1,0.6,2.2,1,3.5C47,88,47.8,90.5,47.4,91.2z M79.7,92c-0.7,0-16.6-0.3-20-0.2   c-3.4,0.2-4.7-0.5-5.7-1.1c-3.6-2.6-6.8-9.3-7.3-10.3c0.5-0.9,1.3-1.8,2.1-2.7c0.6-0.7,1.3-1.5,1.8-2.3c1.1,7.1,2.1,10.2,4.3,12.4   c2.4,2.4,11.1,2.4,17.5,2.4c2.6,0,4.8,0,5.7,0.2c3.1,0.6,3.4,0.9,3.4,1.3C81.5,91.8,80.6,92,79.7,92z"/><path d="M43.1,8.5c-1,0-1.8,0.8-1.8,1.8s0.8,1.8,1.8,1.8c1,0,1.8-0.8,1.8-1.8S44,8.5,43.1,8.5z M43.1,10.9c-0.4,0-0.6-0.3-0.6-0.6   c0-0.4,0.3-0.6,0.6-0.6c0.4,0,0.6,0.3,0.6,0.6C43.7,10.6,43.4,10.9,43.1,10.9z"/><path d="M43,15.7c-0.3-0.1-0.6,0.1-0.7,0.4c0,0-0.4,1.2-3.6,1.2c0,0-2.6,0-2.8-1.5c0,0,0-0.1,0-0.1c0,0,0-0.1,0-0.1   c0-0.3-0.3-0.5-0.6-0.5c-0.3,0-0.5,0.2-0.6,0.5c0,0,0,0.1,0,0.2c0.3,2.6,3.8,2.5,3.9,2.5c0.1,0,0.2,0,0.3,0c4,0,4.4-1.9,4.5-2.1   C43.5,16.1,43.3,15.8,43,15.7z"/><path d="M36.6,10.2c0-1-0.8-1.8-1.8-1.8s-1.8,0.8-1.8,1.8s0.8,1.8,1.8,1.8S36.6,11.2,36.6,10.2z M34.2,10.2c0-0.4,0.3-0.6,0.6-0.6   s0.6,0.3,0.6,0.6s-0.3,0.6-0.6,0.6S34.2,10.6,34.2,10.2z"/><path d="M37.8,16c0.3,0.2,0.7,0.4,1.1,0.4c0.3,0,0.5-0.1,0.7-0.2c0.7-0.4,1.1-1.2,1-1.8c0-0.4-0.3-0.7-0.6-0.8   c-0.1,0-0.5-0.2-2-0.1c-0.4,0-0.8,0.3-0.9,0.8c0,0,0,0,0,0C36.9,14.9,37.2,15.6,37.8,16z M39.5,14.6c0,0.2-0.2,0.5-0.5,0.6   c-0.1,0.1-0.4,0-0.5-0.1c-0.1-0.1-0.3-0.3-0.3-0.5C38.9,14.6,39.3,14.6,39.5,14.6z"/></g><text x="0" y="115" fill="#000000" font-size="5px" font-weight="bold" font-family="'Helvetica Neue', Helvetica, Arial-Unicode, Arial, Sans-serif">Created by parkjisun</text><text x="0" y="120" fill="#000000" font-size="5px" font-weight="bold" font-family="'Helvetica Neue', Helvetica, Arial-Unicode, Arial, Sans-serif">from the Noun Project</text></svg>