<?xml version="1.0" standalone="no"?>
<!DOCTYPE svg PUBLIC "-//W3C//DTD SVG 20010904//EN"
 "http://www.w3.org/TR/2001/REC-SVG-20010904/DTD/svg10.dtd">
<svg version="1.0" xmlns="http://www.w3.org/2000/svg"
 width="700.000000pt" height="700.000000pt" viewBox="0 0 700.000000 700.000000"
 preserveAspectRatio="xMidYMid meet">
<metadata>
Created by potrace 1.11, written by Peter Selinger 2001-2013
</metadata>
<g transform="translate(0.000000,700.000000) scale(0.100000,-0.100000)"
fill="#000000" stroke="none">
<path d="M4075 6795 c-135 -30 -276 -102 -374 -191 -150 -135 -254 -356 -253
-534 1 -148 39 -242 160 -401 l80 -106 0 -856 0 -855 -39 -43 c-66 -73 -173
-241 -213 -335 -21 -49 -41 -96 -46 -104 -4 -8 -17 -53 -29 -100 -46 -181 -49
-233 -48 -797 l2 -533 -50 -1 c-27 0 -216 0 -420 0 -347 0 -380 -2 -525 -25
-157 -26 -185 -30 -230 -39 -14 -2 -68 -11 -120 -20 -52 -8 -104 -17 -115 -19
-11 -2 -42 -7 -70 -10 -27 -4 -68 -11 -90 -16 -22 -5 -58 -11 -80 -14 -22 -4
-65 -11 -95 -16 -30 -5 -71 -11 -90 -14 -231 -35 -578 -99 -604 -111 -79 -38
-136 -130 -136 -220 1 -102 56 -187 149 -228 43 -19 92 -19 2646 -19 2044 0
2611 2 2641 12 64 20 116 63 154 125 21 34 25 53 25 125 0 75 -3 90 -28 132
-45 78 -48 79 -567 310 -25 11 -75 34 -112 50 l-68 31 36 50 c78 108 153 298
173 437 14 99 14 1510 0 1584 -22 113 -93 238 -177 311 -19 17 -118 86 -220
155 l-185 125 -27 75 c-56 155 -138 285 -248 395 l-71 70 1 207 c0 187 1 208
16 209 10 1 38 2 64 3 42 2 67 15 204 107 86 57 163 114 172 127 11 17 14 50
13 136 0 63 -5 125 -10 138 -12 30 -512 525 -574 567 -71 48 -183 98 -267 120
-91 23 -267 26 -355 6z m320 -191 c94 -24 192 -81 275 -161 42 -39 154 -150
249 -246 184 -184 179 -177 172 -258 0 -9 -50 -48 -109 -88 l-108 -71 -217 0
c-200 0 -217 -1 -218 -17 -1 -22 -1 -156 0 -164 1 -4 34 -7 74 -7 39 0 81 0
92 -1 20 -1 20 -8 20 -250 l0 -249 105 -104 c144 -142 220 -279 255 -460 14
-76 21 -302 8 -295 -4 2 -56 32 -116 66 -98 56 -127 66 -127 41 0 -5 -16 -35
-35 -67 -19 -32 -35 -63 -35 -68 0 -6 101 -68 225 -139 124 -70 241 -143 261
-162 57 -58 94 -126 109 -205 6 -28 9 -529 3 -534 -2 -2 -44 27 -93 64 l-90
68 -1 181 c0 165 -2 184 -20 203 -10 12 -148 86 -306 165 -285 143 -288 144
-300 121 -31 -57 -68 -140 -64 -145 2 -4 116 -63 253 -131 l249 -124 0 -171
c0 -188 4 -201 64 -241 l30 -20 0 -142 c0 -79 -3 -143 -7 -143 -4 0 -22 15
-40 32 -19 18 -100 78 -181 133 l-147 100 0 208 0 207 -92 0 c-67 0 -93 -3
-94 -12 -1 -7 -1 -120 -1 -251 0 -218 1 -240 18 -259 11 -11 93 -70 183 -131
180 -120 221 -156 274 -239 54 -84 80 -168 83 -273 6 -204 -73 -345 -278 -499
-88 -66 -106 -98 -84 -151 8 -18 23 -38 34 -44 15 -8 491 -132 566 -147 84
-17 125 -35 134 -62 12 -33 -11 -78 -42 -84 -52 -9 -1254 0 -1303 10 -249 53
-455 258 -508 508 -21 97 -21 1069 0 1189 21 122 24 136 46 200 59 171 142
305 291 469 10 11 19 29 19 40 1 12 2 424 3 916 2 759 0 899 -12 924 -8 16
-52 79 -98 140 -120 158 -147 243 -120 376 40 193 190 363 380 435 116 44 247
50 371 19z m924 -2304 c66 -44 133 -96 149 -114 40 -46 82 -133 88 -187 5 -41
11 -519 7 -519 -1 0 -22 19 -46 43 l-45 42 -5 90 c-11 179 -99 343 -233 436
l-44 30 0 129 c0 72 2 130 5 130 3 0 59 -36 124 -80z m243 -1421 c0 -388 -3
-422 -53 -557 -39 -107 -110 -225 -181 -298 -47 -49 -57 -91 -32 -133 15 -25
76 -55 405 -202 214 -94 395 -179 403 -188 29 -32 24 -86 -11 -108 -23 -16
-56 -18 -272 -18 -249 -1 -275 0 -266 16 14 21 6 100 -14 145 -26 58 -63 99
-112 125 -29 14 -148 49 -259 74 -51 11 -225 57 -228 60 -1 1 18 24 43 51 111
117 183 276 200 437 2 18 4 184 4 370 l1 337 75 -56 c92 -69 133 -75 177 -25
l28 31 0 183 0 182 46 -47 47 -46 -1 -333z m-2168 -1206 c43 -90 107 -181 170
-243 25 -24 46 -47 46 -50 0 -3 -608 -5 -1351 -5 l-1350 0 -19 25 c-17 22 -19
47 -5 70 6 10 57 25 115 34 30 5 962 159 1030 171 14 2 41 7 60 10 19 3 109
18 200 34 165 29 165 29 616 30 l452 1 36 -77z"/>
<path d="M4064 6421 c-142 -48 -219 -193 -177 -335 15 -51 36 -88 65 -118 17
-17 196 -141 230 -159 14 -8 26 4 69 67 28 42 47 79 43 83 -5 3 -49 32 -97 64
-116 76 -136 98 -132 145 5 58 41 82 121 82 l64 0 0 93 0 93 -68 1 c-40 1 -89
-6 -118 -16z"/>
<path d="M4439 6238 c-11 -134 26 -183 136 -176 l50 3 0 46 c1 71 -12 107 -45
124 -36 19 -140 21 -141 3z"/>
<path d="M542 832 c-30 -23 -40 -83 -18 -116 29 -45 123 -44 141 1 11 30 -8
35 -32 8 -20 -21 -31 -25 -52 -20 -32 8 -41 21 -41 62 0 24 7 37 25 49 23 15
65 12 65 -6 0 -12 29 -20 35 -10 3 5 -3 18 -15 30 -25 25 -77 26 -108 2z"/>
<path d="M1093 843 c-7 -3 -13 -11 -13 -18 0 -7 -6 -16 -12 -19 -10 -5 -10 -7
0 -12 6 -3 12 -23 12 -44 0 -21 3 -45 6 -54 7 -17 54 -22 54 -6 0 6 -7 10 -15
10 -11 0 -15 12 -15 45 0 33 4 45 15 45 8 0 15 5 15 10 0 6 -6 10 -14 10 -8 0
-16 8 -18 18 -2 11 -9 17 -15 15z"/>
<path d="M1400 818 c0 -25 -3 -29 -12 -20 -32 32 -88 -1 -88 -51 0 -42 31 -65
84 -65 l46 1 0 84 c0 67 -3 83 -15 83 -10 0 -15 -10 -15 -32z m-10 -47 c15
-30 12 -49 -11 -61 -25 -14 -49 2 -49 34 0 43 41 61 60 27z"/>
<path d="M1530 767 l0 -84 49 -1 c55 -1 68 8 77 55 8 43 -26 78 -67 69 -26 -5
-29 -3 -29 19 0 16 -6 25 -15 25 -12 0 -15 -16 -15 -83z m88 11 c30 -30 -2
-93 -36 -71 -21 13 -27 50 -12 69 15 17 32 18 48 2z"/>
<path d="M1905 774 c-17 -43 -31 -81 -33 -86 -2 -4 4 -8 12 -8 9 0 20 10 25
22 6 17 17 23 44 24 30 1 36 -2 41 -22 4 -15 14 -24 25 -24 18 0 17 6 -14 83
-45 111 -60 113 -100 11z m53 -22 c-28 -5 -30 0 -16 39 l11 33 12 -34 c11 -32
10 -35 -7 -38z"/>
<path d="M2379 837 c-46 -35 -51 -97 -11 -133 22 -21 34 -25 65 -21 67 9 94
64 62 126 -20 39 -82 54 -116 28z m85 -26 c26 -29 18 -82 -15 -100 -24 -13
-29 -13 -53 2 -34 23 -37 78 -4 101 30 21 51 20 72 -3z"/>
<path d="M2540 765 c0 -67 3 -85 14 -85 8 0 16 11 18 25 4 34 20 35 36 2 8
-16 21 -27 33 -27 18 0 18 3 -7 40 l-27 41 23 24 c18 19 20 25 8 25 -8 0 -23
-9 -33 -20 -27 -29 -35 -25 -35 20 0 29 -4 40 -15 40 -12 0 -15 -16 -15 -85z"/>
<path d="M690 744 c0 -50 3 -64 15 -64 11 0 15 12 15 44 0 37 5 48 27 64 l26
19 -41 0 -42 0 0 -63z"/>
<path d="M790 790 c-56 -56 21 -143 86 -96 26 20 10 32 -21 16 -20 -11 -27
-11 -40 0 -23 19 -18 30 13 29 59 -3 72 0 65 19 -19 52 -67 68 -103 32z m68
-17 c2 -9 -7 -13 -28 -13 -28 0 -31 2 -20 15 15 18 41 16 48 -2z"/>
<path d="M929 790 c-23 -19 -23 -19 -3 -20 11 0 25 5 31 11 13 13 43 5 43 -10
0 -5 -18 -12 -40 -16 -27 -4 -41 -13 -45 -26 -11 -33 11 -48 69 -46 l53 1 -5
51 c-2 27 -9 56 -14 63 -15 18 -63 15 -89 -8z m71 -64 c0 -18 -39 -31 -52 -18
-15 15 0 32 28 32 14 0 24 -6 24 -14z"/>
<path d="M1180 790 c-11 -11 -20 -31 -20 -45 0 -52 69 -85 104 -49 23 23 8 39
-16 18 -14 -14 -23 -16 -35 -8 -25 15 -28 36 -7 34 11 -1 33 -2 51 -1 26 1 31
4 26 19 -19 52 -67 68 -103 32z m68 -18 c2 -8 -8 -12 -27 -12 -29 0 -39 9 -25
23 10 10 47 2 52 -11z"/>
<path d="M1675 793 c4 -10 15 -42 25 -70 19 -52 19 -53 -1 -63 -24 -14 -25
-30 0 -30 25 0 35 14 65 94 30 79 31 86 12 86 -7 0 -19 -20 -27 -47 l-13 -47
-19 47 c-11 26 -26 47 -34 47 -10 0 -13 -6 -8 -17z"/>
<path d="M2050 743 c0 -49 3 -63 15 -63 11 0 15 11 15 43 0 43 13 67 37 67 9
0 13 -17 13 -55 0 -42 3 -55 15 -55 11 0 15 12 15 49 0 35 4 51 16 55 26 10
34 -3 34 -55 0 -37 4 -49 15 -49 11 0 15 12 15 49 0 52 8 65 34 55 12 -4 16
-20 16 -55 0 -37 4 -49 15 -49 18 0 21 80 5 111 -11 20 -54 26 -65 9 -4 -6
-12 -7 -18 -3 -7 5 -49 8 -94 9 l-83 1 0 -64z"/>
<path d="M2689 790 l-24 -19 22 -1 c12 0 25 5 28 10 8 12 16 12 35 0 13 -9 13
-11 0 -20 -8 -5 -25 -10 -36 -10 -30 0 -51 -27 -37 -48 7 -12 25 -17 65 -18
l55 -1 -5 51 c-6 75 -52 99 -103 56z m71 -64 c0 -16 -41 -29 -53 -17 -14 14 2
31 29 31 14 0 24 -6 24 -14z"/>
<path d="M2810 805 c0 -3 11 -32 24 -64 16 -41 21 -63 14 -75 -5 -9 -13 -14
-19 -11 -5 4 -9 -1 -9 -9 0 -19 33 -21 48 -3 10 12 62 147 62 161 0 3 -6 6
-14 6 -7 0 -19 -20 -26 -46 -14 -50 -22 -48 -40 9 -6 20 -18 37 -26 37 -8 0
-14 -2 -14 -5z"/>
<path d="M533 573 c-4 -10 -11 -22 -17 -26 -8 -6 -7 -10 2 -14 7 -3 12 -25 12
-59 0 -41 4 -54 15 -54 11 0 15 13 15 54 0 34 5 56 13 59 9 4 8 8 -3 16 -12 9
-12 11 3 17 9 3 14 10 11 15 -9 16 -44 10 -51 -8z"/>
<path d="M1120 505 c0 -69 3 -85 15 -85 12 0 15 14 15 62 l0 61 40 -61 c56
-88 70 -83 70 23 0 69 -3 85 -15 85 -12 0 -15 -14 -15 -62 l0 -61 -40 61 c-56
88 -70 83 -70 -23z"/>
<path d="M1800 505 c0 -69 3 -85 15 -85 10 0 15 11 15 35 0 35 0 35 45 35 50
0 72 23 59 63 -10 31 -22 37 -81 37 l-53 0 0 -85z m88 59 c17 -3 22 -10 20
-27 -2 -18 -11 -23 -40 -25 -36 -3 -38 -2 -38 26 0 30 12 35 58 26z"/>
<path d="M2200 580 c0 -5 7 -10 15 -10 8 0 15 5 15 10 0 6 -7 10 -15 10 -8 0
-15 -4 -15 -10z"/>
<path d="M2563 583 c-7 -3 -13 -11 -13 -18 0 -7 -6 -16 -12 -18 -10 -4 -10 -7
-1 -14 6 -5 13 -31 15 -58 3 -46 5 -50 31 -53 29 -4 37 12 12 22 -10 3 -15 19
-15 46 0 29 4 40 15 40 8 0 15 5 15 10 0 6 -6 10 -14 10 -8 0 -16 8 -18 18 -2
11 -9 17 -15 15z"/>
<path d="M600 484 c0 -49 3 -64 14 -64 11 0 16 14 18 47 2 38 8 50 26 59 28
14 19 21 -25 22 l-33 1 0 -65z"/>
<path d="M700 530 c-11 -11 -20 -31 -20 -45 0 -14 9 -34 20 -45 11 -11 31 -20
45 -20 14 0 34 9 45 20 11 11 20 31 20 45 0 14 -9 34 -20 45 -11 11 -31 20
-45 20 -14 0 -34 -9 -45 -20z m68 -12 c32 -32 1 -89 -37 -68 -26 13 -28 55 -3
69 22 13 26 13 40 -1z"/>
<path d="M830 485 c0 -51 3 -65 15 -65 11 0 15 12 15 49 0 35 4 51 16 55 26
10 34 -3 34 -55 0 -37 4 -49 15 -49 11 0 15 12 15 49 0 35 4 51 16 55 26 10
34 -3 34 -55 0 -37 4 -49 15 -49 19 0 21 100 3 118 -14 14 -54 16 -63 2 -4 -6
-13 -5 -25 3 -16 9 -24 9 -40 -1 -12 -7 -20 -8 -20 -2 0 5 -7 10 -15 10 -12 0
-15 -14 -15 -65z"/>
<path d="M1310 530 c-11 -11 -20 -31 -20 -45 0 -14 9 -34 20 -45 11 -11 31
-20 45 -20 14 0 34 9 45 20 11 11 20 31 20 45 0 14 -9 34 -20 45 -11 11 -31
20 -45 20 -14 0 -34 -9 -45 -20z m70 -14 c28 -34 -11 -94 -44 -67 -21 18 -20
57 2 70 23 14 28 13 42 -3z"/>
<path d="M1440 496 c0 -63 10 -74 68 -73 l42 0 0 63 c0 50 -3 64 -15 64 -12 0
-15 -11 -13 -46 1 -30 -4 -49 -13 -55 -25 -16 -34 -4 -37 49 -2 37 -7 52 -18
52 -10 0 -14 -14 -14 -54z"/>
<path d="M1580 485 c0 -51 3 -65 15 -65 11 0 15 12 15 49 0 35 4 51 16 55 26
10 34 -3 34 -55 0 -38 4 -49 15 -49 13 0 15 11 13 56 -3 66 -23 88 -58 66 -12
-7 -20 -8 -20 -2 0 5 -7 10 -15 10 -12 0 -15 -14 -15 -65z"/>
<path d="M1960 484 c0 -49 3 -64 14 -64 11 0 16 14 18 47 2 39 7 50 28 60 14
7 23 13 20 14 -3 1 -22 3 -42 4 l-38 4 0 -65z"/>
<path d="M2080 543 c-63 -23 -43 -123 25 -123 14 0 34 9 45 20 50 50 -2 127
-70 103z m48 -25 c32 -32 1 -89 -37 -68 -26 13 -28 55 -3 69 22 13 26 13 40
-1z"/>
<path d="M2200 471 c0 -54 -4 -81 -12 -84 -7 -2 -9 -8 -5 -13 4 -4 16 -3 25 2
24 16 31 174 7 174 -12 0 -15 -15 -15 -79z"/>
<path d="M2270 530 c-56 -56 21 -143 86 -96 26 20 10 32 -21 16 -20 -11 -27
-11 -40 0 -25 21 -17 29 27 27 34 -2 43 2 46 16 5 25 -26 57 -55 57 -12 0 -32
-9 -43 -20z m68 -17 c2 -9 -7 -13 -27 -13 -31 0 -42 14 -18 23 19 8 40 3 45
-10z"/>
<path d="M2410 530 c-39 -39 -11 -110 43 -110 22 0 57 27 57 43 0 13 -23 7
-35 -9 -18 -26 -57 -1 -53 33 4 34 35 54 51 33 16 -20 37 -23 37 -5 0 35 -69
46 -100 15z"/>
</g>
</svg>
