<?xml version="1.0" standalone="no"?>
<!DOCTYPE svg PUBLIC "-//W3C//DTD SVG 20010904//EN"
 "http://www.w3.org/TR/2001/REC-SVG-20010904/DTD/svg10.dtd">
<svg version="1.0" xmlns="http://www.w3.org/2000/svg"
 width="512.000000pt" height="512.000000pt" viewBox="0 0 512.000000 512.000000"
 preserveAspectRatio="xMidYMid meet">
<metadata>
Created by potrace 1.14, written by Peter Selinger 2001-2017
</metadata>
<g transform="translate(0.000000,512.000000) scale(0.100000,-0.100000)"
fill="#000000" stroke="none">
<path d="M1169 5116 c-2 -2 -31 -7 -64 -10 -33 -4 -68 -9 -77 -12 -9 -3 -25
-7 -36 -9 -70 -13 -183 -54 -277 -101 -107 -52 -285 -174 -285 -194 0 -5 -5
-10 -12 -10 -14 0 -82 -73 -153 -165 -55 -72 -149 -225 -139 -225 4 0 0 -10
-8 -22 -33 -52 -88 -233 -105 -348 -11 -72 -10 -2847 0 -2925 5 -32 10 -62 12
-65 2 -4 7 -22 10 -41 21 -116 138 -378 200 -445 5 -7 19 -25 30 -40 48 -68
172 -194 221 -224 13 -8 24 -18 24 -22 0 -5 7 -8 15 -8 8 0 15 -4 15 -8 0 -4
26 -23 57 -42 32 -19 60 -37 63 -40 14 -14 209 -96 250 -105 8 -1 35 -8 59
-15 142 -38 164 -39 1596 -39 849 0 1411 4 1445 10 30 5 75 14 100 20 25 6 54
12 65 15 100 19 286 108 406 194 100 71 259 224 259 249 0 6 4 11 9 11 10 0
99 136 135 207 34 68 72 171 92 247 43 166 43 153 40 1641 -2 1319 -3 1425
-20 1495 -36 153 -111 344 -155 394 -9 10 -14 20 -13 23 2 2 -15 29 -37 59
-23 30 -41 57 -41 60 0 7 -81 93 -143 153 -68 64 -189 150 -284 199 -82 43
-256 104 -331 117 -23 4 -54 9 -70 13 -30 6 -2846 14 -2853 8z"/>
</g>
</svg>
